<?xml version="1.0" encoding="utf-8"?>
<!-- Generator: Adobe Illustrator 15.1.0, SVG Export Plug-In . SVG Version: 6.00 Build 0)  -->
<!DOCTYPE svg PUBLIC "-//W3C//DTD SVG 1.1//EN" "http://www.w3.org/Graphics/SVG/1.1/DTD/svg11.dtd">
<svg version="1.1" id="Layer_1" xmlns="http://www.w3.org/2000/svg" xmlns:xlink="http://www.w3.org/1999/xlink" x="0px" y="0px"
	 width="841.084px" height="746.539px" viewBox="0 0 841.084 746.539" enable-background="new 0 0 841.084 746.539"
	 xml:space="preserve">
<path d="M498.629,422.3"/>
<path d="M498.629,422.3"/>
<g>
	<path opacity="0.03" fill="#231F20" enable-background="new    " d="M751.143,169.785C683.695,102.336,594.017,65.19,498.629,65.19
		c-95.387,0-185.064,37.146-252.515,104.596S141.519,326.913,141.519,422.3c0,95.388,37.146,185.065,104.596,252.513
		c67.45,67.45,157.128,104.596,252.515,104.596c95.388,0,185.065-37.146,252.514-104.596
		C818.593,607.365,855.74,517.685,855.74,422.3C855.74,326.913,818.593,237.235,751.143,169.785z M498.629,769.348
		c-191.67,0-347.052-155.378-347.052-347.049c0-191.67,155.382-347.052,347.052-347.052c191.67,0,347.053,155.382,347.053,347.052
		C845.682,613.97,690.299,769.348,498.629,769.348z"/>
	<path opacity="0.03" fill="#231F20" enable-background="new    " d="M498.629,75.247c-191.67,0-347.052,155.382-347.052,347.052
		c0,191.671,155.382,347.049,347.052,347.049c191.67,0,347.053-155.378,347.053-347.049
		C845.682,230.629,690.299,75.247,498.629,75.247z M498.629,759.291c-185.818,0-336.994-151.175-336.994-336.991
		c0-185.818,151.175-336.994,336.994-336.994c185.819,0,336.994,151.176,336.994,336.994
		C835.623,608.116,684.448,759.291,498.629,759.291z"/>
</g>
<g>
	<path d="M324.658,286.45"/>
	<g>
		<path opacity="0.03" fill="#231F20" enable-background="new    " d="M703.799,383.22c4.987-6.774,8.624-13.246,11.009-19.571
			c5.163-13.203,14.009-46.312,19.304-76.763c10.048-57.813,2.364-72.793-5.366-79.305c-9.248-7.979-22.572-10.093-39.579-6.3
			c-36.16,8.074-87.946,44.18-115.585,72.05c-5.418-0.884-11.192-3.304-17.244-5.861c-6.297-2.663-13.311-5.606-20.778-6.94
			c0.721-1.129,1.217-2.347,1.461-3.606c1.034-3.294,0.433-7.021-1.964-9.852c-2.655-3.152-6.773-4.292-10.519-3.349
			c-4.099-3.593-10.317-3.476-14.23,0.433c-1.071,1.075-2.74,2.333-4.503,3.659c-1.771,1.336-3.797,2.881-5.771,4.671
			c-21.073,11.953-49.815,9.279-75.637,6.863l-3.301-0.31c-0.025,0-0.05,0-0.077,0c-3.333-2.284-6.769-4.663-10.252-7.075
			c-50.29-34.823-90.716-60.731-115.098-51.532c-42.015,15.396-26.568,85.858-15.28,137.304c2.51,11.483,4.765,21.74,5.851,29.186
			c-37.147,51.104-50.847,114.075-36.648,169.504c12.257,47.824,44.446,85.541,90.673,106.284
			c5.013,3.146,32.367,19.288,80.041,29.171c20.483,4.246,46.617,7.647,77.844,7.64c40.838,0,90.374-5.811,147.294-23.105
			c44.569-13.55,77.01-45.501,91.347-89.956C755.243,509.242,742.25,438.31,703.799,383.22z"/>
		<path fill="#FFFFFF" d="M405.71,291.828c-10.675-4.541-80.895-46.997-93.333-40.184c-10.226,6.252-7.895,23.489-6.369,33.261
			c2.364,15.106,7.131,30.025,13.135,44.055c1.423,3.334,2.94,6.617,4.651,9.805c1.523,2.834,1.924,4.255,5.09,2.725
			c2.369-1.14,3.972-3.727,6.111-5.214c5.716-3.963,11.421-8.003,17.197-11.826c2.608-1.723,5.544-2.823,8.091-4.562
			c2.813-1.928,5.396-4.313,8.201-6.295c4.438-3.134,9.011-6.197,13.291-9.523c6.995-5.425,14.938-7.612,22.549-11.991"/>
		<path fill="#FFFFFF" d="M671.296,353.874c-1.145-1.637-3.243-2.463-4.744-3.683c-2.011-1.633-3.898-3.44-5.83-5.09
			c-3.825-3.276-7.406-5.838-11.742-8.46c-6.521-3.946-13.09-7.79-19.707-11.623c-4.532-2.626-9.382-4.798-12.943-8.685
			c-3.186-3.469-8.458-7.585-6.289-12.654c1.352-3.188,4.473-6.345,6.562-9.087c12.383-16.253,42.948-53.709,66.018-33.755
			c15.386,13.522-4.689,76.384-11.495,92.4"/>
	</g>
	<g>
		<path fill="#FFFFFF" d="M636.25,397.952c-0.751-2.171-3.118-3.338-5.297-2.584l-125.879,43.313
			c-1.912,0.654-3.078,2.594-2.765,4.591c0.317,1.999,2.018,3.485,4.044,3.518c0.192,0,0.707,0.02,1.501,0.02
			c10.689,0,72.514-1.461,112.222-34.124c1.542-1.271,1.939-3.414,1.065-5.119l12.525-4.314
			C635.842,402.509,636.997,400.131,636.25,397.952z"/>
		<path fill="#FFFFFF" d="M472.864,436.254l-125.882-43.312c-2.174-0.751-4.55,0.41-5.301,2.584
			c-0.747,2.179,0.412,4.553,2.59,5.309l12.526,4.305c-0.871,1.705-0.473,3.848,1.064,5.12
			c39.715,32.666,101.541,34.123,112.223,34.123c0.794,0,1.307-0.005,1.508-0.005c2.022-0.043,3.723-1.532,4.04-3.532
			C475.943,438.847,474.776,436.913,472.864,436.254z"/>
	</g>
</g>
</svg>
