<?xml version="1.0" encoding="utf-8"?>
<!-- Generator: Adobe Illustrator 15.1.0, SVG Export Plug-In . SVG Version: 6.00 Build 0)  -->
<!DOCTYPE svg PUBLIC "-//W3C//DTD SVG 1.1//EN" "http://www.w3.org/Graphics/SVG/1.1/DTD/svg11.dtd">
<svg version="1.1" id="Layer_1" xmlns="http://www.w3.org/2000/svg" xmlns:xlink="http://www.w3.org/1999/xlink" x="0px" y="0px"
	 width="850.395px" height="212.598px" viewBox="0 0 850.395 212.598" enable-background="new 0 0 850.395 212.598"
	 xml:space="preserve">
<g opacity="0.8">
	<path fill="#FFFFFF" d="M227.406,68.801v12.065h19.373v8.549h-19.373v19.923h-9.583V60.252h32.334v8.549H227.406z"/>
	<path fill="#FFFFFF" d="M286.834,104.376c-3.448,3.446-7.653,5.377-13.236,5.377c-5.585,0-9.859-1.932-13.307-5.377
		c-4.964-4.964-4.826-11.1-4.826-19.58c0-8.48-0.139-14.616,4.826-19.58c3.447-3.447,7.721-5.377,13.307-5.377
		c5.583,0,9.789,1.931,13.236,5.377c4.963,4.964,4.895,11.1,4.895,19.58C291.729,93.276,291.798,99.412,286.834,104.376z
		 M279.733,71.008c-1.379-1.586-3.517-2.62-6.135-2.62c-2.621,0-4.827,1.034-6.206,2.62c-1.861,2.068-2.343,4.343-2.343,13.789
		c0,9.444,0.482,11.72,2.343,13.788c1.379,1.587,3.585,2.621,6.206,2.621c2.619,0,4.756-1.034,6.135-2.621
		c1.861-2.067,2.413-4.343,2.413-13.788C282.146,75.351,281.594,73.075,279.733,71.008z"/>
	<path fill="#FFFFFF" d="M327.577,109.338l-9.583-19.579H311.1v19.579h-9.583V60.252h19.235c9.997,0,15.925,6.826,15.925,15.03
		c0,6.894-4.205,11.169-8.962,12.893l10.962,21.164H327.577z M320.131,68.801H311.1v12.962h9.031c4.206,0,6.963-2.689,6.963-6.481
		S324.337,68.801,320.131,68.801z"/>
	<path fill="#FFFFFF" d="M365.356,68.801v40.537h-9.583V68.801h-12.824v-8.549h35.23v8.549H365.356z"/>
	<path fill="#FFFFFF" d="M403.274,109.753c-10.066,0-18.063-6.826-18.063-17.236V60.252h9.583v31.92c0,5.654,3.309,9.032,8.48,9.032
		c5.171,0,8.548-3.378,8.548-9.032v-31.92h9.515v32.265C421.337,102.927,413.34,109.753,403.274,109.753z"/>
	<path fill="#FFFFFF" d="M461.047,109.338l-19.441-30.126v30.126h-9.583V60.252h8.548l19.443,30.059V60.252h9.582v49.086H461.047z"
		/>
	<path fill="#FFFFFF" d="M481.039,109.338V60.252h32.334v8.549h-22.752v11.514h19.375v8.548h-19.375v11.927h22.752v8.548H481.039z"
		/>
	<path fill="#FFFFFF" d="M555.149,109.753c-5.237,0-9.652-1.793-13.235-5.377c-2.139-2.138-3.448-4.619-3.999-7.377
		c-0.553-2.758-0.827-6.825-0.827-12.203c0-5.378,0.274-9.445,0.827-12.203c0.551-2.827,1.86-5.239,3.999-7.377
		c3.583-3.585,7.998-5.377,13.235-5.377c9.445,0,16.409,5.516,18.065,15.512h-9.724c-1.032-4.206-3.653-6.963-8.272-6.963
		c-2.62,0-4.688,0.828-6.137,2.551c-1.996,2.137-2.412,4.344-2.412,13.858c0,9.514,0.416,11.72,2.412,13.856
		c1.449,1.724,3.517,2.552,6.137,2.552c4.619,0,7.24-2.758,8.272-6.964h9.724C571.558,104.238,564.526,109.753,555.149,109.753z"/>
	<path fill="#FFFFFF" d="M608.649,109.338l-2.895-8.685H588.31l-2.964,8.685h-9.997l17.857-49.086h7.513l17.926,49.086H608.649z
		 M597.204,74.73L591,92.586h12.203L597.204,74.73z"/>
	<path fill="#FFFFFF" d="M639.328,68.801v40.537h-9.585V68.801h-12.824v-8.549h35.231v8.549H639.328z"/>
	<path fill="#FFFFFF" d="M704.959,109.338l-19.442-30.126v30.126h-9.582V60.252h8.546l19.443,30.059V60.252h9.583v49.086H704.959z"
		/>
	<path fill="#FFFFFF" d="M724.951,109.338V60.252h32.333v8.549h-22.75v11.514h19.372v8.548h-19.372v11.927h22.75v8.548H724.951z"/>
	<path fill="#FFFFFF" d="M795.201,109.338l-12.616-22.336l-6.343,7.584v14.752h-9.584V60.252h9.584v21.373l17.307-21.373h11.649
		l-16.271,19.51l17.443,29.576H795.201z"/>
	<path fill="#FFFFFF" d="M841.531,104.376c-3.45,3.446-7.653,5.377-13.239,5.377c-5.584,0-9.858-1.932-13.307-5.377
		c-4.963-4.964-4.825-11.1-4.825-19.58c0-8.48-0.138-14.616,4.825-19.58c3.448-3.447,7.723-5.377,13.307-5.377
		c5.586,0,9.789,1.931,13.239,5.377c4.963,4.964,4.893,11.1,4.893,19.58C846.424,93.276,846.494,99.412,841.531,104.376z
		 M834.428,71.008c-1.378-1.586-3.517-2.62-6.137-2.62c-2.617,0-4.826,1.034-6.205,2.62c-1.86,2.068-2.343,4.343-2.343,13.789
		c0,9.444,0.482,11.72,2.343,13.788c1.379,1.587,3.588,2.621,6.205,2.621c2.62,0,4.759-1.034,6.137-2.621
		c1.862-2.067,2.413-4.343,2.413-13.788C836.842,75.351,836.291,73.075,834.428,71.008z"/>
</g>
<g opacity="0.8">
	<path fill="#CCCCCC" d="M220.478,127.58h4.21v39.826h-4.21V127.58z"/>
	<path fill="#CCCCCC" d="M240.278,127.979c0,0.967-0.229,1.647-0.741,3.24l-2.446,7.853h-2.731l1.991-8.193
		c-1.251-0.398-2.104-1.422-2.104-2.899c0-1.821,1.309-3.072,3.015-3.072C239.026,124.906,240.278,126.273,240.278,127.979z"/>
	<path fill="#CCCCCC" d="M298.253,150.053v17.354h-4.039v-16.957c0-6.313-3.186-9.556-8.591-9.556
		c-6.145,0-10.014,3.98-10.014,10.811v15.702h-4.039v-16.957c0-6.313-3.187-9.556-8.648-9.556c-6.088,0-10.014,3.98-10.014,10.811
		v15.702h-4.04V137.48h3.87v5.46c2.105-3.583,5.974-5.688,10.98-5.688c4.95,0,8.818,2.105,10.639,6.315
		c2.162-3.867,6.428-6.315,11.833-6.315C293.473,137.251,298.253,141.461,298.253,150.053z"/>
	<path fill="#CCCCCC" d="M358.282,127.58v39.826h-3.47l-25.603-32.317v32.317H325V127.58h3.471l25.659,32.316V127.58H358.282z"/>
	<path fill="#CCCCCC" d="M367.39,152.443c0-8.876,6.486-15.191,15.248-15.191c8.761,0,15.191,6.315,15.191,15.191
		c0,8.874-6.43,15.245-15.191,15.245C373.876,167.688,367.39,161.317,367.39,152.443z M393.732,152.443
		c0-6.999-4.723-11.665-11.095-11.665c-6.372,0-11.151,4.666-11.151,11.665c0,6.996,4.779,11.662,11.151,11.662
		C389.009,164.105,393.732,159.439,393.732,152.443z"/>
	<path fill="#CCCCCC" d="M421.841,165.586c-1.594,1.421-3.982,2.102-6.315,2.102c-5.633,0-8.762-3.185-8.762-8.703v-18.091h-5.347
		v-3.414h5.347v-6.543h4.04v6.543h9.103v3.414h-9.103v17.862c0,3.528,1.821,5.463,5.177,5.463c1.651,0,3.3-0.513,4.438-1.536
		L421.841,165.586z"/>
	<path fill="#CCCCCC" d="M452.68,131.219h-13.997v-3.639h32.204v3.639h-13.998v36.188h-4.209V131.219z"/>
	<path fill="#CCCCCC" d="M504.286,150.053v17.354h-4.041v-16.957c0-6.313-3.298-9.556-8.987-9.556
		c-6.431,0-10.468,3.98-10.468,10.811v15.702h-4.042V125.19h4.042v17.524c2.217-3.472,6.143-5.463,11.207-5.463
		C499.28,137.251,504.286,141.461,504.286,150.053z"/>
	<path fill="#CCCCCC" d="M541.44,153.695h-25.035c0.456,6.259,5.236,10.41,11.777,10.41c3.643,0,6.885-1.308,9.162-3.927
		l2.275,2.619c-2.675,3.184-6.829,4.891-11.551,4.891c-9.331,0-15.702-6.371-15.702-15.245c0-8.876,6.202-15.191,14.623-15.191
		c8.418,0,14.506,6.201,14.506,15.191C541.496,152.782,541.44,153.239,541.44,153.695z M516.405,150.678h21.223
		c-0.513-5.858-4.779-9.955-10.638-9.955C521.186,140.723,516.918,144.82,516.405,150.678z"/>
	<path fill="#CCCCCC" d="M561.983,147.493c0-11.608,8.876-20.254,20.936-20.254c11.948,0,20.882,8.589,20.882,20.254
		c0,11.662-8.934,20.254-20.882,20.254C570.859,167.747,561.983,159.1,561.983,147.493z M599.59,147.493
		c0-9.501-7.111-16.5-16.671-16.5c-9.613,0-16.784,6.999-16.784,16.5s7.171,16.497,16.784,16.497
		C592.478,163.99,599.59,156.994,599.59,147.493z"/>
	<path fill="#CCCCCC" d="M639.93,150.053v17.354h-4.039v-16.957c0-6.313-3.3-9.556-8.988-9.556c-6.43,0-10.469,3.98-10.469,10.811
		v15.702h-4.039V137.48h3.867v5.518c2.164-3.641,6.201-5.746,11.38-5.746C634.924,137.251,639.93,141.461,639.93,150.053z"/>
	<path fill="#CCCCCC" d="M650.913,125.19h4.04v42.217h-4.04V125.19z"/>
	<path fill="#CCCCCC" d="M691.368,137.48l-14.965,33.51c-2.502,5.859-5.688,7.736-9.955,7.736c-2.789,0-5.464-0.91-7.284-2.73
		l1.879-3.014c1.479,1.479,3.3,2.274,5.46,2.274c2.675,0,4.495-1.252,6.202-5.007l1.311-2.901l-13.371-29.868h4.21l11.266,25.431
		l11.265-25.431H691.368z"/>
	<path fill="#CCCCCC" d="M709.293,147.493c0-11.608,8.876-20.254,20.938-20.254c11.945,0,20.88,8.589,20.88,20.254
		c0,11.662-8.935,20.254-20.88,20.254C718.169,167.747,709.293,159.1,709.293,147.493z M746.9,147.493
		c0-9.501-7.111-16.5-16.67-16.5c-9.616,0-16.784,6.999-16.784,16.5s7.168,16.497,16.784,16.497
		C739.789,163.99,746.9,156.994,746.9,147.493z"/>
	<path fill="#CCCCCC" d="M787.242,150.053v17.354H783.2v-16.957c0-6.313-3.298-9.556-8.986-9.556
		c-6.431,0-10.469,3.98-10.469,10.811v15.702h-4.041V137.48h3.869v5.518c2.163-3.641,6.2-5.746,11.379-5.746
		C782.235,137.251,787.242,141.461,787.242,150.053z"/>
	<path fill="#CCCCCC" d="M824.396,153.695h-25.033c0.456,6.259,5.234,10.41,11.775,10.41c3.642,0,6.885-1.308,9.161-3.927
		l2.278,2.619c-2.676,3.184-6.829,4.891-11.551,4.891c-9.33,0-15.703-6.371-15.703-15.245c0-8.876,6.203-15.191,14.62-15.191
		c8.422,0,14.51,6.201,14.51,15.191C824.454,152.782,824.396,153.239,824.396,153.695z M799.363,150.678h21.223
		c-0.513-5.858-4.781-9.955-10.642-9.955C804.142,140.723,799.876,144.82,799.363,150.678z"/>
</g>
<path d="M96.76,106.839"/>
<path d="M96.76,106.839"/>
<circle fill="#FFFFFF" cx="96.76" cy="106.839" r="93.023"/>
<g>
	<path d="M50.129,70.426"/>
	<g>
		<path d="M151.753,96.365c1.337-1.817,2.312-3.551,2.951-5.247c1.384-3.539,3.755-12.413,5.174-20.575
			c2.694-15.496,0.634-19.511-1.438-21.257c-2.479-2.138-6.05-2.705-10.609-1.688c-9.692,2.164-23.573,11.842-30.981,19.312
			c-1.452-0.237-3-0.885-4.622-1.571c-1.688-0.714-3.568-1.503-5.57-1.86c0.194-0.303,0.327-0.629,0.392-0.967
			c0.277-0.883,0.116-1.882-0.526-2.641c-0.712-0.844-1.816-1.15-2.82-0.897c-1.098-0.963-2.765-0.932-3.814,0.116
			c-0.287,0.288-0.734,0.625-1.207,0.981c-0.475,0.358-1.018,0.772-1.547,1.252c-5.648,3.204-13.353,2.487-20.273,1.839
			l-0.885-0.083c-0.007,0-0.014,0-0.021,0c-0.893-0.612-1.814-1.25-2.748-1.896c-13.479-9.334-24.315-16.278-30.85-13.813
			c-11.262,4.127-7.121,23.014-4.096,36.803c0.673,3.078,1.277,5.827,1.568,7.823c-9.957,13.698-13.629,30.577-9.823,45.434
			c3.285,12.818,11.913,22.928,24.304,28.488c1.344,0.843,8.676,5.17,21.454,7.819c5.49,1.138,12.495,2.049,20.865,2.047
			c10.946,0,24.224-1.557,39.481-6.193c11.946-3.632,20.641-12.195,24.484-24.111C165.542,130.143,162.06,111.13,151.753,96.365z"/>
		<path fill="#FFFFFF" d="M71.854,71.867c-2.862-1.216-21.683-12.596-25.017-10.77c-2.741,1.676-2.116,6.296-1.707,8.915
			c0.634,4.049,1.911,8.048,3.521,11.809c0.381,0.893,0.788,1.773,1.247,2.628c0.408,0.759,0.515,1.14,1.364,0.73
			c0.635-0.306,1.064-0.999,1.638-1.397c1.532-1.063,3.061-2.146,4.609-3.17c0.699-0.462,1.486-0.757,2.169-1.223
			c0.754-0.517,1.446-1.156,2.198-1.688c1.19-0.839,2.415-1.661,3.563-2.552c1.875-1.454,4.004-2.04,6.044-3.214"/>
		<path fill="#FFFFFF" d="M143.041,88.498c-0.306-0.438-0.869-0.66-1.271-0.987c-0.539-0.437-1.045-0.922-1.563-1.364
			c-1.025-0.878-1.985-1.565-3.147-2.268c-1.748-1.057-3.509-2.088-5.282-3.115c-1.215-0.704-2.515-1.286-3.47-2.328
			c-0.854-0.93-2.267-2.033-1.686-3.392c0.363-0.854,1.2-1.701,1.759-2.435c3.319-4.357,11.512-14.397,17.695-9.048
			c4.124,3.624-1.256,20.473-3.081,24.766"/>
	</g>
	<g>
		<path fill="#F4F5F5" d="M133.648,100.313c-0.201-0.582-0.836-0.895-1.42-0.693l-33.74,11.61c-0.513,0.176-0.826,0.695-0.742,1.23
			c0.085,0.536,0.541,0.935,1.084,0.944c0.052,0,0.19,0.004,0.403,0.004c2.865,0,19.436-0.391,30.08-9.146
			c0.413-0.341,0.519-0.915,0.285-1.372l3.357-1.156C133.538,101.534,133.848,100.897,133.648,100.313z"/>
		<path fill="#F4F5F5" d="M89.854,110.579L56.113,98.97c-0.583-0.201-1.22,0.11-1.421,0.692c-0.201,0.584,0.11,1.221,0.694,1.423
			l3.357,1.155c-0.233,0.457-0.127,1.031,0.286,1.372c10.645,8.755,27.216,9.146,30.08,9.146c0.213,0,0.35-0.001,0.404-0.001
			c0.542-0.012,0.998-0.411,1.083-0.947C90.679,111.275,90.366,110.756,89.854,110.579z"/>
	</g>
</g>
</svg>
